<svg width="21" height="21" viewBox="0 0 21 21" fill="none" xmlns="http://www.w3.org/2000/svg">
<path d="M20.5 14.74V4.5V3.5V2.5C20.5 1.4 19.6 0.5 18.5 0.5H14.5H6.5H2.5C1.4 0.5 0.5 1.4 0.5 2.5V3.5V4.5V16.03V18.5C0.5 19.6 1.4 20.5 2.5 20.5H6.5H14.74" stroke="white" stroke-miterlimit="10"/>
<path d="M21 14.74L14.74 21L14.57 16.83C14.57 15.68 15.53 14.74 16.71 14.74H21Z" fill="white"/>
<path d="M17.5 4.5H3.5V6.5H17.5V4.5Z" fill="white"/>
<path d="M17.5 8.5H3.5V10.5H17.5V8.5Z" fill="white"/>
<path d="M12.5 12.5H3.5V14.5H12.5V12.5Z" fill="white"/>
</svg>
