<svg width="25" height="25" viewBox="0 0 25 25" fill="none" xmlns="http://www.w3.org/2000/svg">
<g clip-path="url(#clip0_245_1010)">
<path d="M24.1312 19.9179L20.0964 15.8891C22.9529 10.7058 21.0724 4.19543 15.8891 1.33897C10.7058 -1.51749 4.18951 0.363014 1.33304 5.54035C-1.52342 10.7177 0.363037 17.234 5.54038 20.0964C8.75985 21.8698 12.6637 21.8698 15.8832 20.0964L19.912 24.1312C21.0783 25.2976 22.9588 25.2976 24.1252 24.1312C25.2916 22.9648 25.2916 21.0783 24.1312 19.9179ZM2.98146 10.7177C2.98146 6.4449 6.44492 2.98144 10.7177 2.98144C14.9905 2.98144 18.454 6.4449 18.454 10.7177C18.454 14.9905 14.9905 18.4539 10.7177 18.4539C6.44492 18.4539 2.98146 14.9905 2.98146 10.7177Z" fill="white"/>
</g>
<defs>
<clipPath id="clip0_245_1010">
<rect width="25" height="25" fill="white"/>
</clipPath>
</defs>
</svg>