<svg width="25" height="25" viewBox="0 0 25 25" fill="none" xmlns="http://www.w3.org/2000/svg">
<path d="M12.5012 2.15363e-06C5.59929 -0.0040061 0.00400962 5.58751 1.54165e-06 12.4897C-0.0020025 16.5301 1.94993 20.3219 5.23656 22.6667C5.39087 22.7789 5.54919 22.8871 5.71152 22.9934C9.84185 25.6689 15.1586 25.6689 19.2889 22.9934C19.4472 22.8892 19.6015 22.7829 19.7578 22.6707C25.3772 18.6644 26.6838 10.8604 22.6777 5.2428C20.331 1.95202 16.5414 2.15363e-06 12.5012 2.15363e-06ZM19.4532 19.0933C19.341 18.6865 19.0604 18.3458 18.6817 18.1554C17.2869 17.46 14.2187 16.4298 14.2187 16.4298V15.4178L14.3028 15.3536C14.898 14.8987 15.2968 14.2333 15.4171 13.4918L15.4331 13.3856H15.5173C15.9762 13.3836 16.389 13.107 16.5634 12.6821C16.6636 12.4998 16.7157 12.2933 16.7157 12.0849C16.7157 11.9406 16.6897 11.7983 16.6375 11.664C16.6095 11.5177 16.5273 11.3875 16.4091 11.2993L16.1285 11.1289L16.1987 10.8223C16.7097 8.59571 14.9842 6.58958 12.6675 6.53546C12.6094 6.53146 12.5553 6.53146 12.4992 6.53146C12.4431 6.53146 12.387 6.53146 12.3309 6.53546C10.0142 6.58958 8.28871 8.59771 8.79975 10.8223L8.86989 11.1289L8.58531 11.2993C8.46707 11.3875 8.38491 11.5177 8.35886 11.664C8.30675 11.7983 8.2787 11.9406 8.2787 12.0849C8.2787 12.2933 8.3328 12.4998 8.43301 12.6821C8.60736 13.107 9.02019 13.3856 9.47911 13.3856H9.55928L9.57932 13.4918C9.69756 14.2313 10.0964 14.8967 10.6916 15.3536L10.7757 15.4178V16.4298C10.7757 16.4298 7.71356 17.46 6.31473 18.1554C5.93597 18.3438 5.65741 18.6845 5.54518 19.0933C1.89783 15.2534 2.05414 9.18292 5.89389 5.5354C9.73363 1.88789 15.8039 2.04421 19.4512 5.88412C22.9683 9.58575 22.9683 15.3917 19.4532 19.0933Z" fill="white"/>
</svg>