<?xml version="1.0" encoding="UTF-8" standalone="no"?>
<svg
   width="289"
   height="163"
   viewBox="0 0 289 163"
   fill="none"
   version="1.1"
   id="svg45"
   sodipodi:docname="964a0349c7c0fe74ec5227ed6f589a49.svg"
   xmlns:inkscape="http://www.inkscape.org/namespaces/inkscape"
   xmlns:sodipodi="http://sodipodi.sourceforge.net/DTD/sodipodi-0.dtd"
   xmlns="http://www.w3.org/2000/svg"
   xmlns:svg="http://www.w3.org/2000/svg">
  <sodipodi:namedview
     id="namedview47"
     pagecolor="#ffffff"
     bordercolor="#666666"
     borderopacity="1.0"
     inkscape:pageshadow="2"
     inkscape:pageopacity="0.0"
     inkscape:pagecheckerboard="0" />
  <g
     filter="url(#filter0_d_210_23)"
     id="g24">
    <path
       d="M125.045 81.318C131.86 114.457 110.477 146.745 77.4232 153.475C44.2837 160.29 11.9962 138.907 5.26607 105.768C-1.54924 72.7137 19.8338 40.341 52.9733 33.6108C85.9423 26.8807 118.315 48.1786 125.045 81.318Z"
       fill="black"
       id="path2" />
    <path
       d="M122.234 83.5329C128.283 113.265 109.114 142.315 79.3827 148.364C49.6509 154.412 20.6006 135.244 14.552 105.512C8.41827 75.7805 27.6715 46.8155 57.3181 40.6817C87.0499 34.6331 116.1 53.8012 122.234 83.5329Z"
       fill="white"
       id="path4" />
    <path
       d="M163.637 73.3952C170.367 106.449 202.74 127.833 235.794 121.102C268.934 114.287 290.231 81.9996 283.416 48.9453C276.686 15.8911 244.313 -5.49196 211.259 1.23815C178.205 7.96827 156.907 40.341 163.637 73.3952Z"
       fill="black"
       id="path6" />
    <path
       d="M167.13 74.3323C173.179 104.064 202.229 123.232 231.961 117.184C261.693 111.135 280.861 82.0848 274.812 52.353C268.763 22.6212 239.713 3.45313 209.982 9.50172C180.25 15.5503 161.082 44.6006 167.13 74.3323Z"
       fill="white"
       id="path8" />
    <path
       d="M100.34 85.1516C102.555 95.9709 95.5689 106.62 84.7496 108.835C73.9303 111.05 63.2814 104.064 61.0664 93.2448C58.8515 82.4255 65.8372 71.7766 76.6565 69.5616C87.4758 67.2614 98.1247 74.2471 100.34 85.1516Z"
       fill="black"
       id="path10" />
    <path
       d="M91.6498 81.8291C92.3314 84.9812 90.2868 88.1333 87.0496 88.7296C83.8975 89.4112 80.7454 87.3666 80.149 84.1293C79.4675 80.9772 81.5121 77.8251 84.7494 77.2288C87.9014 76.6325 90.9683 78.6771 91.6498 81.8291Z"
       fill="white"
       id="path12" />
    <path
       d="M80.7457 77.4844C80.9161 78.4215 80.3198 79.3586 79.3827 79.6142C78.4456 79.7846 77.5085 79.1882 77.2529 78.2511C77.0825 77.314 77.6788 76.3769 78.6159 76.1213C79.553 75.9509 80.4901 76.5473 80.7457 77.4844Z"
       fill="white"
       id="path14" />
    <path
       d="M226.679 59.2535C228.894 70.0728 221.908 80.7217 211.004 82.9367C200.184 85.1517 189.536 78.166 187.321 67.2615C185.106 56.4422 192.091 45.7932 202.996 43.5783C213.9 41.4485 224.464 48.4342 226.679 59.2535Z"
       fill="black"
       id="path16" />
    <path
       d="M217.989 56.0162C218.671 59.1683 216.626 62.3204 213.389 62.9167C210.237 63.5982 207.085 61.5536 206.489 58.3164C205.807 55.1643 207.852 52.0122 211.089 51.4159C214.241 50.7343 217.393 52.7789 217.989 56.0162Z"
       fill="white"
       id="path18" />
    <path
       d="M207.085 51.6715C207.256 52.6086 206.659 53.5457 205.722 53.8013C204.785 53.9717 203.848 53.3753 203.592 52.4382C203.422 51.5011 204.018 50.564 204.955 50.3084C205.978 50.0529 206.915 50.7344 207.085 51.6715Z"
       fill="white"
       id="path20" />
    <path
       d="M117.804 66.3243C124.278 61.298 131.86 57.6348 140.379 55.931C148.899 54.2271 157.333 54.5679 165.17 56.6125C165.085 54.4827 165.596 52.4381 166.618 50.5639C157.929 48.2637 148.558 47.8378 139.102 49.7972C129.645 51.7566 121.211 55.7606 114.055 61.298C115.674 62.6611 116.952 64.3649 117.804 66.3243Z"
       fill="black"
       id="path22" />
  </g>
  <defs
     id="defs43">
    <filter
       id="filter0_d_210_23"
       x="0"
       y="0"
       width="288.686"
       height="162.741"
       filterUnits="userSpaceOnUse"
       color-interpolation-filters="sRGB">
      <feFlood
         flood-opacity="0"
         result="BackgroundImageFix"
         id="feFlood26" />
      <feColorMatrix
         in="SourceAlpha"
         type="matrix"
         values="0 0 0 0 0 0 0 0 0 0 0 0 0 0 0 0 0 0 127 0"
         result="hardAlpha"
         id="feColorMatrix28" />
      <feOffset
         dy="4"
         id="feOffset30" />
      <feGaussianBlur
         stdDeviation="2"
         id="feGaussianBlur32" />
      <feComposite
         in2="hardAlpha"
         operator="out"
         id="feComposite34" />
      <feColorMatrix
         type="matrix"
         values="0 0 0 0 0 0 0 0 0 0 0 0 0 0 0 0 0 0 0.25 0"
         id="feColorMatrix36" />
      <feBlend
         mode="normal"
         in2="BackgroundImageFix"
         result="effect1_dropShadow_210_23"
         id="feBlend38" />
      <feBlend
         mode="normal"
         in="SourceGraphic"
         in2="effect1_dropShadow_210_23"
         result="shape"
         id="feBlend40" />
    </filter>
  </defs>
</svg>
