<svg xmlns="http://www.w3.org/2000/svg" viewBox="0 0 144 29.6"><defs><style>.cls-1{fill:#9a9c9e;}.cls-2{fill:#0e89af;}.cls-3{fill:#fff;}</style></defs><title>GuateGeekSVG</title><g id="Layer_2" data-name="Layer 2"><g id="Layer_1-2" data-name="Layer 1"><path class="cls-1" d="M18.32,26.54A10.19,10.19,0,0,1,11,29.48a10.6,10.6,0,0,1-7.8-3.22A10.61,10.61,0,0,1,0,18.47,10.62,10.62,0,0,1,3.21,10.7,10.58,10.58,0,0,1,11,7.47a10.61,10.61,0,0,1,7.4,2.87l-.93.82A9.46,9.46,0,0,0,11,8.71,9.45,9.45,0,0,0,4.1,11.57a9.41,9.41,0,0,0-2.87,6.9A9.42,9.42,0,0,0,4.1,25.39,9.45,9.45,0,0,0,11,28.25a9.47,9.47,0,0,0,6.11-2.13V19.57h1.2Z"/><path class="cls-1" d="M26.3,29.4a5.3,5.3,0,0,1-3.94-1.46,5.16,5.16,0,0,1-1.5-3.69V16h1.21v8.13A3.85,3.85,0,0,0,23.29,27a4.06,4.06,0,0,0,3,1.2A4,4,0,0,0,29.16,27a3.88,3.88,0,0,0,1.21-2.87V16h1.22v8.24A5.08,5.08,0,0,1,26.3,29.4Z"/><path class="cls-1" d="M48.61,29.22H47.4V26.53c-.24.31-.49.61-.76.9A7.38,7.38,0,0,1,34,22.23,7.38,7.38,0,0,1,46.64,17a10.8,10.8,0,0,1,.76.89V16h1.21ZM47.4,23.41V21a6.1,6.1,0,0,0-10.3-3.12,6.08,6.08,0,0,0,0,8.62,5.91,5.91,0,0,0,4.31,1.78,6.16,6.16,0,0,0,6-4.9Z"/><path class="cls-1" d="M53.14,16v-5.6h1.2V16H57v1.22H54.34v12h-1.2v-12H50.45V16Z"/><path class="cls-1" d="M59.63,21.54a5,5,0,0,0,0,.69,5.85,5.85,0,0,0,1.78,4.3,6.1,6.1,0,0,0,8.63,0c.2-.2.4-.41.58-.63l1.29.45a6.51,6.51,0,0,1-1,1.1,7.39,7.39,0,0,1-12.6-5.2A7.38,7.38,0,0,1,70.91,17a6.2,6.2,0,0,1,1.9,4.54Zm.23-1.23H71.44A5.69,5.69,0,0,0,70,17.91a6.1,6.1,0,0,0-8.63,0A6.28,6.28,0,0,0,59.86,20.31Z"/><path class="cls-2" d="M92.8,26.54a10.17,10.17,0,0,1-7.31,2.94,10.58,10.58,0,0,1-7.79-3.22,10.62,10.62,0,0,1-3.22-7.79A10.62,10.62,0,0,1,77.7,10.7a11,11,0,0,1,15.19-.36l-.92.82a9.79,9.79,0,0,0-13.39.41,9.4,9.4,0,0,0-2.86,6.9A9.79,9.79,0,0,0,91.6,26.12V19.57h1.2Z"/><path class="cls-2" d="M96.13,21.54a5,5,0,0,0,0,.69,6.1,6.1,0,0,0,10.42,4.28c.2-.2.39-.41.58-.63l1.29.45a6.51,6.51,0,0,1-1,1.1,7.38,7.38,0,0,1-12.6-5.2A7.38,7.38,0,0,1,107.41,17a6.2,6.2,0,0,1,1.9,4.54Zm.23-1.23h11.58a5.69,5.69,0,0,0-1.44-2.4,6.11,6.11,0,0,0-8.64,0A6.13,6.13,0,0,0,96.36,20.31Z"/><path class="cls-2" d="M112,21.54a5,5,0,0,0,0,.69,6.1,6.1,0,0,0,10.42,4.28c.2-.2.39-.41.58-.63l1.29.45a6.51,6.51,0,0,1-1,1.1,7.38,7.38,0,0,1-12.6-5.2A7.38,7.38,0,0,1,123.25,17a6.2,6.2,0,0,1,1.9,4.54Zm.23-1.23h11.58a5.69,5.69,0,0,0-1.44-2.4,6.11,6.11,0,0,0-8.64,0A6.13,6.13,0,0,0,112.2,20.31Z"/><path class="cls-2" d="M133.63,16l-3.25,4,5.18,9.17h-1.49L129.59,21l-1.17,1.46v6.73H127.2V10.42h1.22V20.55L132.08,16Z"/><path class="cls-2" d="M140.27,22.14a10,10,0,0,1-2.12-1.43,3.17,3.17,0,0,1,2.23-5.41,3,3,0,0,1,2.18.86,2.67,2.67,0,0,1,.83,1.92v.06l-1,.42A2.58,2.58,0,0,0,141.7,17a1.73,1.73,0,0,0-1.32-.52A2,2,0,0,0,139,19.85a8.13,8.13,0,0,0,1.41,1,10.9,10.9,0,0,1,2.45,1.66A3.77,3.77,0,0,1,144,25.3a3.83,3.83,0,0,1-1.14,2.79,3.92,3.92,0,0,1-5.53,0,3.53,3.53,0,0,1-1.14-2.52l1.2-.3a2.66,2.66,0,0,0,.8,2,2.58,2.58,0,0,0,1.9.79,2.71,2.71,0,0,0,2.72-2.73,2.58,2.58,0,0,0-.8-1.9A10.84,10.84,0,0,0,140.27,22.14Z"/><path d="M109.69,9.55A7.18,7.18,0,1,1,101.22,4,7.18,7.18,0,0,1,109.69,9.55Z"/><path class="cls-3" d="M109.36,9.81a6.45,6.45,0,1,1-7.62-5A6.45,6.45,0,0,1,109.36,9.81Z"/><path d="M114.22,8.62a7.18,7.18,0,1,0,5.6-8.47A7.19,7.19,0,0,0,114.22,8.62Z"/><path class="cls-3" d="M114.63,8.73a6.45,6.45,0,1,0,5-7.61A6.46,6.46,0,0,0,114.63,8.73Z"/><path d="M106.79,10A2.36,2.36,0,1,1,104,8.16,2.36,2.36,0,0,1,106.79,10Z"/><path class="cls-3" d="M105.77,9.61a.7.7,0,0,1-.54.82.69.69,0,0,1-.81-.54.68.68,0,0,1,.53-.81A.69.69,0,0,1,105.77,9.61Z"/><path class="cls-3" d="M104.49,9.1a.21.21,0,0,1-.17.25.21.21,0,0,1-.08-.41A.22.22,0,0,1,104.49,9.1Z"/><path d="M121.62,7a2.35,2.35,0,1,1-2.78-1.83A2.35,2.35,0,0,1,121.62,7Z"/><path class="cls-3" d="M120.6,6.58a.68.68,0,0,1-.53.81.69.69,0,0,1-.82-.54.7.7,0,0,1,.54-.81A.68.68,0,0,1,120.6,6.58Z"/><path class="cls-3" d="M119.32,6.07a.21.21,0,0,1-.16.25.22.22,0,0,1-.25-.17.2.2,0,0,1,.17-.24A.2.2,0,0,1,119.32,6.07Z"/><path d="M108.84,7.79a6.39,6.39,0,0,1,5.56-1.14,1.3,1.3,0,0,1,.17-.7,7.12,7.12,0,0,0-6.17,1.26A1.49,1.49,0,0,1,108.84,7.79Z"/></g></g></svg>