<svg width="128" height="128" viewBox="0 0 128 128" fill="none" xmlns="http://www.w3.org/2000/svg">
<path d="M64 0C99.4 0 128 28.6 128 64C128 99.4 99.4 128 64 128C28.6 128 0 99.4 0 64C0 28.6 28.6 0 64 0Z" fill="#5093FF"/>
<path d="M26 116.007C26 97.4068 43 82.0069 64 82.0069C84.8 82.0069 102 97.4068 102 116.007" fill="#316CFF"/>
<path d="M64 100.007C70.6274 100.007 76 94.6343 76 88.0068C76 81.3794 70.6274 76.0069 64 76.0069C57.3726 76.0069 52 81.3794 52 88.0068C52 94.6343 57.3726 100.007 64 100.007Z" fill="white"/>
<path d="M72.2 78.6068V87.8068C72.2 92.4068 68.4 96.0068 64 96.0068C61.8 96.0068 59.6 95.0068 58.2 93.6068C56.8 92.0068 55.8 90.0068 55.8 87.8068V78.6068C55.8 78.6068 72.2 78.6068 72.2 78.6068Z" fill="#F7BE8F"/>
<path d="M72.6 84.6069C69.8 85.6069 67 86.0069 64 86.0069C61 86.0069 58.2 85.6069 55.4 84.6069L52 83.0069C45.6 79.4069 41.2 73.4069 40.2 66.6069C40 65.4069 40 64.4069 40 63.4069C40 61.4069 40 57.2069 40 53.6069C40 50.2069 40 34.0069 40 34.0069H88C88 34.0069 88 50.2069 88 53.6069C88 57.2069 88 61.2069 88 63.4069C88 64.4069 88 65.6069 87.8 66.6069C87.4 69.6069 86.4 72.2069 84.8 74.8069C82.8 78.2069 79.8 81.0069 76 83.0069C74.8 83.6069 73.8 84.0069 72.6 84.6069Z" fill="#FAD3A1"/>
<path d="M53 52.0069C54.6 52.0069 56 53.4069 56 55.0068C56 56.6068 54.6 58.0068 53 58.0068C51.4 58.0068 50 56.6068 50 55.0068C50 53.4069 51.4 52.0069 53 52.0069Z" fill="#262647"/>
<path d="M72 55.0068C72 53.4069 73.4 52.0069 75 52.0069C76.6 52.0069 78 53.4069 78 55.0068C78 56.6068 76.6 58.0068 75 58.0068C73.4 58.0068 72 56.6068 72 55.0068Z" fill="#262647"/>
<path d="M66 66.0069C66 67.2069 65.2 68.0069 64 68.0069C62.8 68.0069 62 67.2069 62 66.0069H66Z" fill="#F7BE8F"/>
<path d="M64 77.0069C60.8 77.0069 57.8 75.2069 56.2 72.6069C56 72.0069 56 71.4068 56.6 71.2068C57 71.0068 57.6 71.0069 58 71.6069C59.2 73.8069 61.6 75.2068 64 75.2068C66.4 75.2068 68.8 73.8069 70 71.6069C70.2 71.2069 70.8 71.0068 71.4 71.2068C71.8 71.4068 72 72.0069 71.8 72.6069C70.2 75.2069 67.2 77.0069 64 77.0069Z" fill="#F4B28E"/>
<path d="M92 40.0068V54.0068H88V43.2069L77.2 34.8068C74.2 42.8068 65.4 48.4068 56.6 48.4068C50.6 48.4068 43.8 45.8068 40 41.6068V43.4069V54.0068H36V37.0068C36 30.8069 38 25.8068 41.4 22.0068C46.6 16.0068 54.4 11.8068 62 12.0068C68.2 12.2068 72.8 14.2068 80 12.0068C80.6 13.0068 81 14.4068 80.6 16.4068C80.4 18.0068 80.2 18.4068 80 19.4068C87 24.6068 92 30.4068 92 40.0068Z" fill="#262647"/>
<path d="M40 62.0068C36.6 62.0068 34 59.4068 34 56.0068C34 54.4068 34.6 52.8068 35.8 51.8068C36.8 50.8069 38.4 50.0069 40 50.0069V62.0068Z" fill="#F7BE8F"/>
<path d="M88 62.0068C91.4 62.0068 94 59.4068 94 56.0068C94 54.4068 93.4 52.8068 92.2 51.8068C91.2 50.6069 89.6 50.0069 88 50.0069V62.0068Z" fill="#F7BE8F"/>
</svg>
