<svg width="21" height="20" viewBox="0 0 21 20" fill="none" xmlns="http://www.w3.org/2000/svg">
    <defs>
        <linearGradient id="paint0_linear_236_861" x1="10.5" y1="-0.000244141" x2="10.5" y2="20" gradientUnits="userSpaceOnUse">
            <stop stop-color="#4B3BAB"/>
            <stop offset="1" stop-color="#0E89AF"/>
        </linearGradient>
    </defs>
    <path d="M17.4671 2.38625C15.4896 0.82569 13.0317 -0.0165197 10.5 -5.83427e-06C4.70164 -5.83427e-06 0 4.24242 0 9.47568C0 9.50045 0 9.52687 0 9.55329C0 9.56485 0 9.57641 0 9.58962C0 10.4285 0.13395 11.2641 0.395152 12.0618C0.400175 12.0783 0.406873 12.0964 0.411896 12.1146C0.838861 13.4275 1.55717 14.6297 2.51658 15.6321C2.84644 17.0688 2.40942 18.5732 1.35624 19.6185C1.2675 19.706 1.2675 19.8464 1.35624 19.9339C1.3981 19.9752 1.45671 20 1.51531 20C3.24661 19.9934 4.90927 19.3312 6.15835 18.1488L6.19016 18.1191C7.55813 18.6723 9.02153 18.9547 10.5 18.9514C13.6981 18.9514 16.5629 17.66 18.4884 15.6255C20.0908 13.9675 20.9883 11.7662 21 9.47568C21 6.6551 19.6337 4.12187 17.4671 2.38625Z" fill="url(#paint0_linear_236_861)"/>
</svg>
